<svg width="76" height="37" viewBox="0 0 76 37" fill="none" xmlns="http://www.w3.org/2000/svg">
<path d="M3 25.8353C3 24.7265 3.14286 23.4613 3.42857 22.0397L6.9 4H16.3714L12.9429 22.1676C12.6857 23.5039 12.5571 24.6696 12.5571 25.6647C12.5571 26.6314 12.7571 27.3706 13.1571 27.8824C13.5857 28.3941 14.1857 28.65 14.9571 28.65C15.7286 28.65 16.3571 28.5505 16.8429 28.3515C17.3286 28.1525 17.7714 27.8113 18.1714 27.3279C18.9429 26.3613 19.5714 24.6412 20.0571 22.1676L23.5286 4H30L26.5714 22.125C25.7714 26.1623 24.2714 28.9912 22.0714 30.6118C19.9286 32.2039 16.7429 33 12.5143 33C9.34286 33 6.91429 32.3176 5.22857 30.9529C3.74286 29.7588 3 28.0529 3 25.8353Z" fill="white"/>
<path d="M51.5 4C41.7273 4 33.3814 10.0127 30 18.5C33.3814 26.9873 41.7273 33 51.5 33C61.2727 33 69.6186 26.9873 73 18.5C69.6186 10.0127 61.2727 4 51.5 4ZM51.5 28.1667C46.1055 28.1667 41.7273 23.836 41.7273 18.5C41.7273 13.164 46.1055 8.83333 51.5 8.83333C56.8945 8.83333 61.2727 13.164 61.2727 18.5C61.2727 23.836 56.8945 28.1667 51.5 28.1667ZM51.5 12.7C48.2555 12.7 45.6364 15.2907 45.6364 18.5C45.6364 21.7093 48.2555 24.3 51.5 24.3C54.7445 24.3 57.3636 21.7093 57.3636 18.5C57.3636 15.2907 54.7445 12.7 51.5 12.7Z" fill="white"/>
</svg>
