<svg width="128" height="114" viewBox="0 0 128 114" fill="none" xmlns="http://www.w3.org/2000/svg">
<path d="M64 68.4203C70.3009 68.4203 75.4088 63.3072 75.4088 56.9999C75.4088 50.6927 70.3009 45.5795 64 45.5795C57.6992 45.5795 52.5913 50.6927 52.5913 56.9999C52.5913 63.3072 57.6992 68.4203 64 68.4203Z" fill="#61DAFB"/>
<path d="M64 80.3977C97.8094 80.3977 125.217 69.9221 125.217 57C125.217 44.0776 97.8094 33.6022 64 33.6022C30.1905 33.6022 2.78259 44.0776 2.78259 57C2.78259 69.9221 30.1905 80.3977 64 80.3977Z" stroke="#61DAFB" stroke-width="3"/>
<path d="M43.7576 68.6987C60.6622 98.0085 83.4291 116.531 94.6086 110.07C105.788 103.609 101.147 74.6107 84.2424 45.301C67.3376 15.9913 44.5709 -2.53117 33.3913 3.92995C22.2117 10.3911 26.8528 39.389 43.7576 68.6987Z" stroke="#61DAFB" stroke-width="3"/>
<path d="M43.7576 45.301C26.8528 74.6107 22.2117 103.609 33.3913 110.07C44.5709 116.531 67.3376 98.0085 84.2424 68.6987C101.147 39.389 105.788 10.3911 94.6086 3.92995C83.4291 -2.53117 60.6622 15.9913 43.7576 45.301Z" stroke="#61DAFB" stroke-width="3"/>
</svg>
